<?xml version="1.0" encoding="UTF-8" standalone="no"?>
<!-- Created with Inkscape (http://www.inkscape.org/) -->

<svg
   xmlns:dc="http://purl.org/dc/elements/1.1/"
   xmlns:cc="http://creativecommons.org/ns#"
   xmlns:rdf="http://www.w3.org/1999/02/22-rdf-syntax-ns#"
   xmlns:svg="http://www.w3.org/2000/svg"
   xmlns="http://www.w3.org/2000/svg"
   xmlns:sodipodi="http://sodipodi.sourceforge.net/DTD/sodipodi-0.dtd"
   xmlns:inkscape="http://www.inkscape.org/namespaces/inkscape"
   width="210mm"
   height="297mm"
   id="svg2"
   version="1.1"
   inkscape:version="0.48.4 r9939"
   sodipodi:docname="VaultBoyFallout.svg">
  <defs
     id="defs4" />
  <sodipodi:namedview
     id="base"
     pagecolor="#ffffff"
     bordercolor="#666666"
     borderopacity="1.0"
     inkscape:pageopacity="0.0"
     inkscape:pageshadow="2"
     inkscape:zoom="1.4142136"
     inkscape:cx="373.32599"
     inkscape:cy="295.00477"
     inkscape:document-units="px"
     inkscape:current-layer="layer1"
     showgrid="false"
     inkscape:window-width="1366"
     inkscape:window-height="744"
     inkscape:window-x="0"
     inkscape:window-y="24"
     inkscape:window-maximized="1"
     showguides="true"
     inkscape:guide-bbox="true" />
  <metadata
     id="metadata7">
    <rdf:RDF>
      <cc:Work
         rdf:about="">
        <dc:format>image/svg+xml</dc:format>
        <dc:type
           rdf:resource="http://purl.org/dc/dcmitype/StillImage" />
        <dc:title />
      </cc:Work>
    </rdf:RDF>
  </metadata>
  <g
     inkscape:label="Capa 1"
     inkscape:groupmode="layer"
     id="layer1">
    <g
       id="g5186"
       transform="matrix(3.4227744,0,0,3.4227744,-611.28847,-672.35253)">
      <path
         sodipodi:nodetypes="cscsssssssssscssssssscssssscsssssssssssscsccsczcczc"
         inkscape:connector-curvature="0"
         id="path2996"
         d="m 273.7019,429.65508 c 0,0 -4.3934,-32.33217 -5.42507,-48.06356 -0.75213,-11.46884 0.45302,-34.50338 0.45302,-34.50338 0,0 0.37622,5.10671 -1.93527,5.51333 -11.50891,2.02456 -41.28508,4.82978 -47.29458,4.76072 -1.34362,-0.0154 -1.40706,-0.8433 -2.5,-1.625 -1.13927,-0.81483 -5.7631,0.65333 -13.52262,-0.89576 -2.02328,-0.40393 -0.15999,-2.04679 -1.85238,-2.97924 -2.63163,-1.44994 -5.37311,-1.00938 -6.25,-5.625 -0.46103,-2.42669 1.25566,-4.12475 1.125,-5.375 -0.1643,-1.57216 -3.74976,-1.51061 -4.25,-5.3125 -0.51231,-3.89363 2.00008,-4.58492 1.875,-6.25 -0.1316,-1.75189 -3.33773,-3.20224 -2.375,-8.5625 1.06588,-5.93461 17.0625,-4.375 17.0625,-4.375 0,0 -1.96558,-2.20134 -4.66374,-6.41507 -1.508,-2.35505 -1.29611,-7.9244 -0.71126,-10.20993 1.89341,-7.39924 10.23562,-11.64457 14.5,-6.625 4.04476,4.76106 -2.6016,9.24612 -0.875,15.25 0.96711,3.36293 5.54075,6.71703 8.35773,9.64397 1.96037,2.03689 2.19581,4.03003 3.82977,4.79353 9.72386,4.54365 18.41655,4.68918 25.49982,5.19001 9.41673,0.66583 27.87518,-2.00251 27.87518,-2.00251 0,0 -9.75353,-6.95414 -11.25,-23.5 -1.0733,-11.86701 2.60423,-20.30562 2.625,-21.625 0.0231,-1.46849 -3.01254,-5.16499 -2.2045,-8.87868 0.27675,-1.27195 1.25129,-3.90106 1.7045,-5.12132 0.47458,-1.27779 -1.2548,-5.88779 -0.26256,-8.58839 0.89497,-2.43586 4.75736,-4.87868 4.75736,-4.87868 0,0 0.3393,2.27931 1.38648,3.82062 0.95518,1.40589 4.02817,1.24564 5.61872,0.64645 3.33783,-1.25742 5.14289,-5.82462 8.44454,-7.17417 3.2727,-1.33772 5.26832,1.47598 8.55546,0.17417 3.96884,-1.57178 3.85363,-6.89912 8.08839,-7.43674 3.30679,-0.4198 5.82905,3.51713 8.88388,4.85095 3.41541,1.49126 5.4738,-0.10672 8.34835,2.26517 2.48279,2.04863 3.3596,4.66553 5.17938,7.32062 2.93462,4.28164 7.15965,6.44592 8.75996,11.38388 1.64313,5.0701 2.49713,11.31074 1.18433,16.31304 -1.1187,4.2627 -5.05397,8.36082 -5.34426,12.80308 -0.11629,1.77952 2.94725,3.67032 1.3835,8.16031 -1.2211,3.50613 -3.96379,6.0395 -9.47214,5.74662 -1.96727,-0.2448 -4.88876,5.53138 -5.55599,5.98205 -0.65593,0.44304 -6.80992,5.74484 -9.33928,7.72714 11.67373,-9.91286 32.32319,5.89193 37.5,9.23743 9.93954,7.23162 26.68342,25.58888 27.14644,32.12132 0.75474,10.64803 -18.7045,39.05546 -18.7045,39.05546 5.4361,5.08361 3.09408,11.67771 0.38128,14.58579 -2.7128,2.90807 -17.91161,0.64645 -17.91161,0.64645 l 4.82322,9.35355 c 0,0 -14.5651,6.7588 -37.08578,7.08838 -22.52069,0.32959 -36.56327,-8.41161 -36.56327,-8.41161 z"
         style="fill:none;stroke:#000000;stroke-width:1px;stroke-linecap:butt;stroke-linejoin:miter;stroke-opacity:1" />
      <path
         sodipodi:nodetypes="csccscssc"
         inkscape:connector-curvature="0"
         id="path3019"
         d="m 329.625,360.36218 c 0,0 7.01575,4.33889 11.51256,6.04289 3.80843,1.44315 12.58211,4.37761 12.58211,4.37761 0,0 -5.34635,7.53834 -7.35392,11.31815 -1.96671,3.75415 -5.23362,9.73197 -5.19591,12.96443 0.0211,1.80745 1.215,1.39033 0.91094,2.40029 -0.53442,1.53277 -3.10294,3.17968 -3.86203,5.08413 -0.7827,1.96368 -0.91461,5.29713 -0.59375,7.5625 1.02256,7.21948 5.07322,11.54289 5.07322,11.54289"
         style="fill:none;stroke:#000000;stroke-width:1px;stroke-linecap:butt;stroke-linejoin:miter;stroke-opacity:1" />
      <path
         sodipodi:nodetypes="csc"
         inkscape:connector-curvature="0"
         id="path3021"
         d="m 270.95852,408.20393 c 0,0 11.58083,9.98659 33.53954,9.15107 28.32822,-1.07789 33.11967,-6.11503 33.11967,-6.11503"
         style="fill:none;stroke:#000000;stroke-width:1.01453614px;stroke-linecap:butt;stroke-linejoin:miter;stroke-opacity:1" />
      <path
         sodipodi:nodetypes="cssccscsccssc"
         inkscape:connector-curvature="0"
         id="path3023"
         d="m 268.34448,383.98567 c 0,0 4.49287,3.30991 6.81019,4.57073 2.67703,1.45653 7.06122,3.44656 8.71989,2.75403 2.74708,-1.14697 0.22678,-18.4575 0.3764,-25.80407 1.80039,-16.12934 3.0295,-15.06726 3.88945,-22.39146 -1.14006,-1.95815 -4.53482,-3.55979 -5.26958,-7.18443 -0.51235,-2.52749 0.86264,-9.2044 0.86264,-9.2044 0,0 5.1377,3.24799 8.04545,4.05556 4.2397,1.1775 9.10053,1.41509 9.10053,1.41509 0,0 -10.94594,-1.36947 -11.12039,-2.2126 0.80885,0.92709 6.17034,5.51496 16.51119,5.34765 3.28459,-0.0532 7.44983,-2.3356 10.22549,-4.78962 2.49775,-2.20831 3.6736,-7.26482 3.6736,-7.26482"
         style="fill:none;stroke:#000000;stroke-width:0.98055875px;stroke-linecap:butt;stroke-linejoin:miter;stroke-opacity:1" />
      <path
         sodipodi:nodetypes="cssssssc"
         inkscape:connector-curvature="0"
         id="path3025"
         d="m 330.80022,324.33197 c 0,0 -2.76779,11.40373 -6.67522,15.28021 -4.73072,4.69325 -17.11659,7.44464 -18.72855,8.75888 -1.60476,1.30836 -2.96749,15.15621 -3.16218,23.554 -0.10329,4.45575 -1.06755,23.55358 0.39073,24.81212 2.22016,1.91607 11.41644,1.14856 17.07322,0.10983 5.9559,-1.09365 13.88623,-2.92114 16,-5.54549 2.2698,-2.81806 4.73484,-25.38128 4.73484,-25.38128"
         style="fill:none;stroke:#000000;stroke-width:1px;stroke-linecap:butt;stroke-linejoin:miter;stroke-opacity:1" />
      <path
         sodipodi:nodetypes="cscssc"
         inkscape:connector-curvature="0"
         id="path3027"
         d="m 342.01646,396.8938 c 0,0 4.30822,4.71669 7.16668,5.89926 4.79307,1.98291 11.67725,1.91967 11.67725,1.91967 0,0 -5.82092,5.39036 -6.44816,8.53474 -0.34997,1.75443 0.64978,3.21832 2.33612,3.81159 1.20849,0.42515 0.78749,-1.1085 0.78749,-1.1085"
         style="fill:none;stroke:#000000;stroke-width:1.07212389px;stroke-linecap:butt;stroke-linejoin:miter;stroke-opacity:1" />
      <path
         sodipodi:nodetypes="csc"
         inkscape:connector-curvature="0"
         id="path3797"
         d="m 230.36746,323.26352 c 0,0 6.18196,12.35878 4.45851,18.45424 -3.05203,10.79437 -10.91621,15.4666 -10.91621,15.4666"
         style="fill:none;stroke:#000000;stroke-width:1.05267644px;stroke-linecap:butt;stroke-linejoin:miter;stroke-opacity:1" />
      <path
         sodipodi:nodetypes="csscsc"
         inkscape:connector-curvature="0"
         id="path3799"
         d="m 216.51688,355.54536 c 0,0 6.15004,-2.08518 10.57511,-8.45339 2.43621,-3.506 1.66548,-6.11206 1.07077,-7.27776 -0.18056,-0.35391 -1.1897,0.35246 -1.32228,0.41359 0.54549,-0.59743 6.12081,-2.84369 6.47752,-8.96953 0.15454,-2.65382 -3.18263,-8.1045 -3.18263,-8.1045"
         style="fill:none;stroke:#000000;stroke-width:1.08890069px;stroke-linecap:butt;stroke-linejoin:miter;stroke-opacity:1" />
      <path
         sodipodi:nodetypes="cssssssc"
         inkscape:connector-curvature="0"
         id="path3801"
         d="m 201.90533,352.09349 c 0,0 3.7776,0.55538 12.25,0 2.30521,-0.15111 4.72545,-2.90207 5.0625,-4.75 0.3069,-1.68261 -1.90202,-2.29731 -2.5625,-3.875 -0.18867,-0.45067 4.44612,-1.08771 4.625,-4.34375 0.1415,-2.57575 -3.27143,-5.74281 -3.125,-6.75 0.11765,-0.80924 1.40154,-1.30703 1.9375,-5.8125 0.38501,-3.2365 -11.5625,-10.4375 -11.5625,-10.4375"
         style="fill:none;stroke:#000000;stroke-width:1px;stroke-linecap:butt;stroke-linejoin:miter;stroke-opacity:1" />
      <path
         sodipodi:nodetypes="csc"
         inkscape:connector-curvature="0"
         id="path3803"
         d="m 196.00767,341.04088 c 0,0 4.73514,-0.6245 10.76789,-0.22927 4.88238,0.31989 10.56848,2.9804 10.56848,2.9804"
         style="fill:none;stroke:#000000;stroke-width:1.14033461px;stroke-linecap:butt;stroke-linejoin:miter;stroke-opacity:1" />
      <path
         sodipodi:nodetypes="csc"
         inkscape:connector-curvature="0"
         id="path3805"
         d="m 193.99258,329.8079 c 0,0 6.14928,-2.03383 12.44394,-1.55502 5.75508,0.43778 12.18333,4.20771 12.18333,4.20771"
         style="fill:none;stroke:#000000;stroke-width:1.23516786px;stroke-linecap:butt;stroke-linejoin:miter;stroke-opacity:1" />
      <path
         sodipodi:nodetypes="cscsssssssscsc"
         inkscape:connector-curvature="0"
         id="path3807"
         d="m 337.93472,294.67284 c 0,0 -1.82123,-6.77268 -3.75,-9.625 -2.04755,-3.02798 -6.9375,-7.375 -6.9375,-7.375 0,0 2.54465,-1.79391 4.125,-4.34375 0.8101,-1.30706 0.33792,-3.77879 -0.5,-4.84375 -0.74674,-0.94908 -2.90586,-2.21763 -4.5625,-2.3125 -1.93865,-0.11102 -7.513,1.78249 -9.03661,1.61612 -1.79589,-0.1961 -5.55281,-6.3241 -8.59597,-6.7474 -2.71753,-0.37801 -6.68735,2.98478 -9.22856,2.94562 -2.43229,-0.0375 -4.99355,-1.82324 -6.69822,-1.67287 -3.6091,0.31834 -6.06491,6.40602 -10.23483,8.73981 -1.23676,0.69218 -4.07323,0.96469 -4.07323,0.96469 0,0 -0.40351,2.88103 -1.06931,4.07847 -0.77571,1.39513 -3.38485,3.80056 -3.38485,3.80056"
         style="fill:none;stroke:#000000;stroke-width:1px;stroke-linecap:butt;stroke-linejoin:miter;stroke-opacity:1" />
      <path
         sodipodi:nodetypes="cssc"
         inkscape:connector-curvature="0"
         id="path3809"
         d="m 296.63591,282.08546 c -2.18127,7.6167 -4.99048,9.07481 -7.1639,12.29043 -0.29659,0.43882 0.41514,1.42388 1.06002,2.24684 0.65886,0.8408 2.39157,2.1404 2.39157,2.1404"
         style="fill:none;stroke:#000000;stroke-width:1px;stroke-linecap:butt;stroke-linejoin:miter;stroke-opacity:1" />
      <path
         sodipodi:nodetypes="csc"
         inkscape:connector-curvature="0"
         id="path3811"
         d="m 326.82939,292.56596 c 0,0 1.28831,0.56752 1.63751,0.89234 0.42836,0.39847 0.95223,1.30096 0.95223,1.30096"
         style="fill:none;stroke:#000000;stroke-width:0.78287798px;stroke-linecap:butt;stroke-linejoin:miter;stroke-opacity:1" />
      <path
         sodipodi:nodetypes="csc"
         inkscape:connector-curvature="0"
         id="path3813"
         d="m 327.24954,289.15378 c 0,0 1.65423,1.06885 2.31444,1.77669 0.75757,0.8122 2.00584,2.79359 2.00584,2.79359"
         style="fill:none;stroke:#000000;stroke-width:1.04735065px;stroke-linecap:butt;stroke-linejoin:miter;stroke-opacity:1" />
      <path
         sodipodi:nodetypes="csc"
         inkscape:connector-curvature="0"
         id="path3815"
         d="m 327.10853,285.77641 c 0,0 3.87418,2.57895 5.63511,4.56794 1.65981,1.87479 4.73258,6.37558 4.73258,6.37558"
         style="fill:none;stroke:#000000;stroke-width:1.16177917px;stroke-linecap:butt;stroke-linejoin:miter;stroke-opacity:1" />
      <path
         sodipodi:nodetypes="csc"
         inkscape:connector-curvature="0"
         id="path3817"
         d="m 327.25918,280.89139 c 0,0 3.61325,3.4561 6.26056,7.15424 2.31415,3.23272 4.14992,7.65789 4.14992,7.65789"
         style="fill:none;stroke:#000000;stroke-width:1.11402655px;stroke-linecap:butt;stroke-linejoin:miter;stroke-opacity:1" />
      <path
         sodipodi:nodetypes="csc"
         inkscape:connector-curvature="0"
         id="path3819"
         d="m 311.34997,273.33502 c 0,0 1.71948,0.5909 3.18522,2.03617 1.69065,1.66703 2.42744,3.09035 2.42744,3.09035"
         style="fill:none;stroke:#000000;stroke-width:1px;stroke-linecap:butt;stroke-linejoin:miter;stroke-opacity:1" />
      <path
         sodipodi:nodetypes="csc"
         inkscape:connector-curvature="0"
         id="path3821"
         d="m 280.99378,275.00053 c 0,0 1.06679,-0.90593 1.79508,-1.31433 0.78535,-0.44039 2.33707,-0.7186 2.33707,-0.7186"
         style="fill:none;stroke:#000000;stroke-width:1px;stroke-linecap:butt;stroke-linejoin:miter;stroke-opacity:1" />
      <path
         sodipodi:nodetypes="csc"
         inkscape:connector-curvature="0"
         id="path3823"
         d="m 293,318.17468 c 0,0 1.36773,0.63299 2.375,0.78125 1.29442,0.19053 3.1875,0.0937 3.1875,0.0937"
         style="fill:none;stroke:#000000;stroke-width:1px;stroke-linecap:butt;stroke-linejoin:miter;stroke-opacity:1" />
      <path
         transform="matrix(0.8232233,0,0,1.0117851,-107.49602,-3.4627501)"
         d="m 475.97124,285.06293 c 0,2.1967 -1.10804,3.97747 -2.47487,3.97747 -1.36684,0 -2.47488,-1.78077 -2.47488,-3.97747 0,-2.1967 1.10804,-3.97748 2.47488,-3.97748 1.36683,0 2.47487,1.78078 2.47487,3.97748 z"
         sodipodi:ry="3.9774756"
         sodipodi:rx="2.4748738"
         sodipodi:cy="285.06293"
         sodipodi:cx="473.49637"
         id="path3827"
         style="fill:#000000;fill-opacity:1;fill-rule:nonzero;stroke:#000000;stroke-width:0;stroke-linecap:butt;stroke-miterlimit:4;stroke-opacity:0.99159666;stroke-dasharray:none;stroke-dashoffset:0"
         sodipodi:type="arc" />
      <path
         sodipodi:nodetypes="sssss"
         inkscape:connector-curvature="0"
         id="path3829"
         d="m 307.68147,285.94958 c -0.51538,-0.15442 3.24431,-2.15674 5.80016,-1.04994 2.97233,1.28715 3.11373,5.75469 2.34359,5.1073 -0.66318,-0.55748 -1.97108,-2.04924 -3.49578,-2.89092 -1.65625,-0.91431 -3.62684,-0.86049 -4.64797,-1.16644 z"
         style="fill:#000000;fill-opacity:1;stroke:#000000;stroke-width:1px;stroke-linecap:butt;stroke-linejoin:miter;stroke-opacity:1" />
      <path
         sodipodi:nodetypes="csc"
         inkscape:connector-curvature="0"
         id="path3831"
         d="m 273.57243,266.93084 c 0,0 1.14685,1.99165 1.89868,2.75735 1.39145,1.41717 2.77076,2.32408 2.77076,2.32408"
         style="fill:none;stroke:#000000;stroke-width:1.17344928px;stroke-linecap:butt;stroke-linejoin:miter;stroke-opacity:1" />
      <path
         style="fill:none;stroke:#000000;stroke-width:0.90404546px;stroke-linecap:butt;stroke-linejoin:miter;stroke-opacity:1"
         d="m 294.68768,318.86936 c 0,0 1.01779,0.61972 1.64592,0.65302 0.8072,0.0428 1.84432,-0.3943 1.84432,-0.3943"
         id="path5152"
         inkscape:connector-curvature="0"
         sodipodi:nodetypes="csc" />
      <g
         transform="translate(-185.96909,2.4748737)"
         id="g5162">
        <path
           style="fill:none;stroke:#000000;stroke-width:1px;stroke-linecap:butt;stroke-linejoin:miter;stroke-opacity:1"
           d="m 469.91351,302.6415 c 0,0 -1.29142,2.14714 -1.45343,3.55698 -0.17609,1.53243 1.14721,3.87836 1.14721,3.87836"
           id="path5154"
           inkscape:connector-curvature="0"
           sodipodi:nodetypes="csc" />
        <path
           style="fill:none;stroke:#000000;stroke-width:0.90118909px;stroke-linecap:butt;stroke-linejoin:miter;stroke-opacity:1"
           d="m 496.611,300.23777 c 0,0 3.11319,2.66217 3.82867,5.10295 0.49925,1.70316 0.40874,5.33417 0.40874,5.33417"
           id="path5156"
           inkscape:connector-curvature="0"
           sodipodi:nodetypes="csc" />
        <path
           style="fill:none;stroke:#000000;stroke-width:1px;stroke-linecap:butt;stroke-linejoin:miter;stroke-opacity:1"
           d="m 469.07696,307.86713 c 0.79549,0.70711 8.70839,4.95776 13.63769,5.00597 6.24832,0.0611 17.5634,-6.71752 17.5634,-6.71752"
           id="path5158"
           inkscape:connector-curvature="0"
           sodipodi:nodetypes="csc" />
        <path
           style="fill:none;stroke:#000000;stroke-width:1px;stroke-linecap:butt;stroke-linejoin:miter;stroke-opacity:1"
           d="m 469.87245,304.68515 c 0.44195,0.35356 8.77089,3.04058 13.12882,2.83915 5.13912,-0.23753 14.51085,-4.5078 14.51085,-4.5078"
           id="path5160"
           inkscape:connector-curvature="0"
           sodipodi:nodetypes="csc" />
        <path
           sodipodi:nodetypes="cssc"
           inkscape:connector-curvature="0"
           id="path5176"
           d="m 497.38882,303.06949 c 0,0 0.61738,-0.27442 1.09523,-0.25735 0.61137,0.0218 0.86665,0.54914 1.4183,1.48611 0.68583,1.16487 -0.64215,2.4532 -0.64215,2.4532"
           style="fill:none;stroke:#000000;stroke-width:1;stroke-linecap:butt;stroke-linejoin:miter;stroke-miterlimit:4;stroke-opacity:1;stroke-dasharray:none" />
        <path
           sodipodi:nodetypes="csc"
           inkscape:connector-curvature="0"
           id="path5178"
           d="m 469.86699,304.07865 c 0,0 -1.0586,1.61507 -1.24824,2.4088 -0.20615,0.86275 1.45226,2.01162 1.45226,2.01162"
           style="fill:none;stroke:#000000;stroke-width:1;stroke-linecap:butt;stroke-linejoin:miter;stroke-miterlimit:4;stroke-opacity:1;stroke-dasharray:none" />
        <path
           sodipodi:nodetypes="csc"
           inkscape:connector-curvature="0"
           id="path5180"
           d="m 497.26588,299.63276 c 0,0 3.86946,5.18026 3.96929,5.44279 0.0868,0.22832 -0.38032,5.43964 -0.38032,5.43964"
           style="fill:none;stroke:#000000;stroke-width:0.90118909px;stroke-linecap:butt;stroke-linejoin:miter;stroke-opacity:1" />
      </g>
      <path
         sodipodi:nodetypes="csc"
         inkscape:connector-curvature="0"
         id="path5182"
         d="m 337.57031,410.92468 c 0,0 -2.21966,-5.48144 -2.04433,-10.56591 0.15801,-4.58219 2.70885,-18.57392 2.70885,-18.57392"
         style="fill:none;stroke:#000000;stroke-width:1px;stroke-linecap:butt;stroke-linejoin:miter;stroke-opacity:1" />
      <path
         style="fill:none;stroke:#000000;stroke-width:0.97393256px;stroke-linecap:butt;stroke-linejoin:miter;stroke-opacity:1"
         d="m 289.44115,294.40741 c -0.24389,0.50621 0.34134,1.64253 0.87163,2.59184 0.54176,0.96992 1.96655,2.46906 1.96655,2.46906"
         id="path5184"
         inkscape:connector-curvature="0"
         sodipodi:nodetypes="csc" />
    </g>
    <path
       style="opacity:0.68320606;fill:#ffdd55;fill-opacity:1;fill-rule:nonzero;stroke:none"
       d=""
       id="path4024"
       inkscape:connector-curvature="0" />
    <path
       style="opacity:0.68320606;fill:#e9afaf;fill-opacity:1;fill-rule:nonzero;stroke:none"
       d=""
       id="path4076"
       inkscape:connector-curvature="0" />
    <path
       style="opacity:0.68320606;fill:#e9afaf;fill-opacity:1;fill-rule:nonzero;stroke:none"
       d=""
       id="path4078"
       inkscape:connector-curvature="0" />
    <path
       style="opacity:0.68320606;fill:#e9afaf;fill-opacity:1;fill-rule:nonzero;stroke:none"
       d=""
       id="path4082"
       inkscape:connector-curvature="0" />
    <path
       style="fill:#ffaa73;fill-opacity:1;fill-rule:nonzero;stroke:#ffaa73;stroke-width:0.88388348;stroke-linecap:butt;stroke-miterlimit:4;stroke-opacity:1;stroke-dasharray:none;stroke-dashoffset:0"
       d=""
       id="path4118"
       inkscape:connector-curvature="0" />
  </g>
</svg>
