<?xml version="1.0"?>
<svg version="1.0" xmlns="http://www.w3.org/2000/svg" width="200" height="171" viewBox="0 0 753.000000 642.000000"
    preserveAspectRatio="xMidYMid meet">
    <metadata> Created by potrace 1.16, written by Peter Selinger 2001-2019 </metadata>
    <g transform="translate(0.000000,642.000000) scale(0.100000,-0.100000)">
        <path fill="#fb4646" stroke="#ffff00" stroke-width="5"
            d="M7435 6411 c-11 -5 -51 -11 -88 -15 -65 -6 -127 -20 -207 -46 -19 -6 -51 -15 -70 -21 -19 -6 -44 -14 -55 -19 -11 -4 -51 -18 -90 -30 -38 -12 -97 -34 -130 -50 -33 -15 -82 -38 -110 -50 -27 -12 -75 -33 -105 -47 -30 -14 -71 -32 -90 -41 -49 -21 -507 -313 -565 -359 -5 -5 -50 -37 -99 -73 -97 -71 -475 -439 -517 -505 -14 -22 -48 -74 -74 -115 -27 -41 -52 -77 -57 -81 -7 -5 -19 -51 -34 -134 -9 -51 26 -125 76 -163 54 -41 67 -62 75 -122 4 -25 10 -54 15 -65 26 -63 50 -169 57 -251 l5 -61 -50 -49 c-27 -27 -68 -65 -91 -84 -23 -19 -62 -54 -86 -77 -67 -63 -116 -93 -161 -96 l-39 -2 -3 80 c-2 43 -8 85 -14 92 -7 9 -43 13 -123 13 l-113 0 -7 27 c-3 14 -24 42 -46 61 -29 26 -37 38 -29 47 8 10 0 30 -29 79 -61 99 -73 133 -77 221 -3 60 -8 83 -20 92 -16 11 -16 24 -6 125 5 62 17 144 26 183 27 118 21 193 -26 317 -7 19 -39 44 -111 86 -137 81 -187 94 -329 89 -223 -9 -416 -36 -474 -65 -21 -10 -57 -23 -78 -26 -52 -10 -118 -42 -144 -69 -11 -12 -30 -42 -43 -67 -13 -25 -30 -50 -39 -57 -13 -10 -12 -15 11 -38 l26 -26 84 12 c83 12 85 12 141 -15 32 -15 65 -37 75 -49 10 -13 38 -34 63 -49 47 -28 118 -97 139 -136 9 -16 10 -44 6 -87 -9 -79 -39 -129 -101 -167 -41 -25 -44 -26 -44 -8 0 36 -55 -1 -106 -70 -26 -36 -63 -83 -83 -105 -20 -22 -47 -61 -60 -87 -12 -26 -31 -50 -41 -53 -25 -8 -117 -100 -135 -136 l-16 -29 -132 0 c-90 0 -137 -4 -145 -12 -7 -7 -12 -43 -12 -93 l0 -82 -44 -10 c-40 -9 -48 -7 -84 16 -22 14 -69 51 -104 82 -35 31 -81 64 -104 74 -29 12 -47 30 -65 61 -13 24 -26 44 -29 44 -3 0 -11 9 -18 21 -13 20 -9 45 19 114 4 11 10 55 12 97 2 43 9 83 15 90 5 7 18 42 27 76 12 47 31 83 70 134 81 107 92 173 49 304 -31 97 -58 140 -143 226 -36 36 -73 75 -82 85 -44 49 -261 256 -311 297 -78 62 -167 133 -202 159 -15 12 -33 27 -40 32 -6 6 -48 35 -93 65 -45 30 -80 57 -78 60 3 5 -93 64 -106 65 -7 0 -142 85 -149 94 -9 11 -276 148 -390 199 -67 30 -178 72 -240 91 -19 6 -69 21 -110 35 -59 19 -105 25 -211 29 -151 7 -170 4 -187 -24 -10 -15 -10 -25 2 -47 15 -28 133 -152 146 -152 3 0 15 -8 26 -17 51 -46 133 -113 138 -113 11 0 96 -64 96 -72 0 -4 -11 -8 -24 -8 -55 0 -86 -12 -86 -34 0 -60 115 -199 232 -280 l47 -32 -29 -11 c-36 -14 -53 -53 -40 -89 20 -52 249 -254 288 -254 24 0 17 -26 -10 -37 -67 -29 -58 -95 24 -175 l48 -46 -42 -7 c-48 -8 -78 -29 -78 -55 0 -28 37 -94 74 -130 19 -19 36 -38 36 -41 0 -4 -13 -9 -28 -12 -42 -9 -82 -51 -82 -87 0 -17 6 -38 12 -46 18 -21 61 -62 84 -78 18 -14 18 -15 -6 -25 -62 -26 -86 -71 -70 -130 12 -44 42 -79 81 -93 l29 -10 -40 -29 c-35 -26 -40 -34 -40 -69 0 -36 5 -43 51 -80 28 -22 63 -47 79 -57 l28 -16 -24 -32 c-17 -23 -24 -45 -24 -78 0 -43 3 -49 38 -71 20 -14 56 -30 80 -36 43 -11 54 -26 27 -36 -18 -7 -39 -79 -31 -109 4 -16 22 -28 62 -44 31 -11 64 -21 74 -21 10 0 25 -3 34 -6 14 -5 13 -10 -5 -35 -11 -15 -25 -53 -32 -84 -10 -51 -10 -57 9 -76 13 -13 45 -24 87 -32 l66 -11 -5 -60 c-8 -90 3 -100 110 -105 91 -3 96 -7 71 -51 -20 -35 -18 -69 5 -108 l21 -34 67 7 c37 4 74 11 82 15 13 7 15 -1 12 -60 -4 -59 -1 -71 17 -89 28 -28 107 -29 161 -1 l40 20 0 -34 c0 -49 19 -85 48 -93 35 -8 131 5 155 22 20 14 22 13 37 -36 12 -40 23 -56 51 -72 l36 -21 63 22 c63 21 80 21 80 -1 1 -22 39 -58 71 -67 33 -10 124 4 135 21 3 5 12 9 20 9 10 0 14 -12 14 -39 0 -36 -4 -42 -47 -68 -27 -16 -86 -44 -133 -62 -47 -18 -105 -45 -130 -58 -85 -48 -171 -159 -204 -263 -33 -107 -49 -131 -95 -145 -14 -4 -34 -16 -45 -26 -11 -11 -29 -19 -41 -19 -12 0 -25 -3 -29 -7 -9 -9 -108 -33 -151 -37 -17 -1 -39 -7 -49 -13 -10 -6 -26 -8 -36 -6 -19 5 -51 71 -60 123 -5 32 -11 37 -65 59 -33 13 -86 25 -118 27 -52 3 -69 -1 -147 -39 l-89 -42 -84 90 c-45 49 -126 138 -179 196 l-96 105 48 23 c56 27 74 40 138 101 128 122 166 300 105 490 -16 53 -72 168 -90 190 -39 45 -81 82 -106 93 -15 6 -27 15 -27 19 0 5 -23 4 -37 -1 -1 -1 9 -26 23 -56 53 -122 0 -251 -111 -268 -71 -11 -102 34 -79 116 8 26 20 68 28 95 19 66 13 159 -13 211 -27 53 -68 96 -101 106 -14 4 -30 11 -35 16 -22 17 -34 -5 -25 -46 12 -50 -3 -100 -39 -131 -33 -29 -81 -31 -104 -4 -21 25 -21 46 -1 105 17 51 19 80 11 173 -5 61 -17 97 -17 56 -1 -16 -4 -14 -22 10 -21 28 -72 56 -102 56 -12 0 -14 -6 -7 -22 19 -53 -5 -118 -79 -213 -82 -106 -93 -136 -94 -250 -1 -111 11 -160 70 -279 43 -87 38 -115 -11 -61 -19 20 -35 44 -35 51 0 8 -4 14 -9 14 -5 0 -12 14 -16 30 -4 17 -10 30 -15 30 -4 0 -11 12 -15 27 -6 27 -7 27 -20 9 -24 -32 -38 -126 -37 -241 1 -60 4 -121 7 -135 8 -43 48 -144 67 -172 10 -14 18 -31 18 -37 0 -6 5 -11 10 -11 6 0 10 -7 10 -15 0 -18 9 -30 68 -90 46 -46 106 -79 171 -94 51 -11 167 -6 206 9 28 11 32 9 64 -27 19 -21 127 -139 240 -262 114 -123 208 -227 209 -232 2 -5 -8 -25 -22 -44 -23 -30 -26 -43 -26 -112 0 -70 3 -81 25 -105 26 -29 45 -36 104 -40 31 -3 36 -8 48 -44 8 -25 24 -46 40 -55 28 -15 144 -19 180 -6 19 7 27 2 50 -32 15 -22 33 -41 38 -42 6 0 42 -36 82 -79 337 -370 468 -509 489 -519 85 -38 175 33 158 125 -7 38 -11 42 -269 323 -249 270 -230 240 -191 313 l24 45 -29 31 c-19 20 -29 42 -29 61 0 32 9 37 138 74 50 14 53 14 62 -4 14 -24 41 -24 72 0 24 19 25 20 41 1 9 -11 23 -17 30 -14 8 3 17 -2 20 -10 9 -22 49 -20 78 3 l25 19 -1 -26 c0 -22 5 -28 26 -30 15 -2 33 3 41 12 13 12 19 12 46 -1 29 -14 33 -13 76 12 35 20 49 24 64 16 11 -6 22 -8 25 -5 3 3 21 7 39 9 89 8 169 35 215 72 l46 38 164 0 163 0 0 -38 c0 -21 5 -47 10 -58 9 -16 7 -21 -14 -29 -13 -5 -27 -18 -31 -29 -3 -12 -12 -21 -18 -21 -15 0 -86 -61 -181 -155 -39 -39 -92 -88 -118 -109 -50 -42 -148 -157 -148 -174 0 -6 -11 -23 -25 -38 -14 -15 -25 -35 -25 -45 0 -9 -5 -19 -12 -21 -13 -5 -26 -95 -20 -138 3 -21 10 -30 23 -30 10 0 21 -4 24 -10 9 -15 158 -1 172 17 7 9 13 10 17 4 4 -5 -1 -14 -11 -19 -17 -10 -27 -69 -14 -87 4 -5 20 -44 36 -85 15 -41 29 -77 31 -79 1 -1 13 4 26 13 12 9 30 16 40 16 10 0 18 7 18 15 0 10 7 15 17 13 20 -3 34 -28 25 -43 -3 -5 -6 -30 -7 -55 -1 -42 24 -104 48 -121 14 -10 87 10 118 31 36 27 79 27 72 1 -3 -10 0 -22 6 -25 6 -4 11 -16 11 -27 0 -11 10 -33 22 -49 21 -29 24 -29 77 -23 44 5 62 13 83 35 14 15 31 28 37 28 6 0 11 7 11 15 0 21 29 19 37 -2 7 -21 123 -132 138 -133 6 0 24 9 40 20 17 12 44 27 62 35 17 7 34 24 38 37 4 12 16 31 27 42 14 13 19 28 16 52 -2 19 0 34 4 34 4 0 8 -18 8 -40 0 -25 5 -40 13 -40 6 0 36 -18 66 -40 l55 -39 43 39 c23 22 51 40 62 40 11 0 22 4 25 8 10 17 92 12 152 -9 82 -29 94 -24 94 43 0 29 3 70 6 90 6 35 7 36 43 31 20 -3 56 -16 80 -29 90 -49 111 -27 111 114 0 84 3 102 15 102 21 0 102 -20 153 -37 71 -25 75 -4 21 127 -16 39 -38 135 -44 192 0 10 -4 21 -8 24 -4 4 -7 17 -7 28 0 12 -10 32 -22 46 -13 14 -24 34 -26 45 -2 11 -14 28 -28 38 -13 10 -24 25 -24 32 0 8 -20 33 -45 57 -25 24 -45 50 -45 59 0 8 -20 28 -45 43 -25 16 -45 36 -45 45 0 9 -14 25 -31 35 -18 10 -39 26 -49 35 -9 9 -33 25 -53 35 l-37 19 0 69 0 68 88 2 c48 1 121 2 162 3 41 0 80 4 86 8 6 3 22 -5 34 -18 13 -14 31 -25 41 -25 10 0 21 -5 24 -10 4 -6 20 -9 37 -8 19 2 33 -3 39 -15 7 -11 22 -17 44 -17 19 0 35 -4 35 -10 0 -5 14 -10 30 -10 17 0 30 -3 30 -7 0 -5 11 -21 24 -37 l23 -30 37 18 c20 9 36 24 36 33 0 11 5 13 18 8 34 -15 72 -18 72 -5 0 8 9 11 28 7 15 -3 34 -2 42 3 8 5 22 4 33 -1 12 -7 22 -7 30 0 14 11 471 7 500 -4 23 -10 22 -21 -8 -47 l-25 -21 35 -34 c19 -19 35 -38 35 -42 0 -5 16 -16 35 -25 19 -9 35 -18 35 -19 0 -1 -39 -110 -86 -242 -47 -132 -105 -296 -128 -365 -24 -69 -63 -177 -86 -240 -91 -251 -102 -283 -104 -306 0 -13 -4 -24 -7 -24 -4 0 -7 -10 -7 -22 0 -13 -14 -65 -31 -117 -22 -65 -28 -98 -21 -105 5 -5 10 -7 10 -2 0 4 26 -6 58 -22 31 -17 71 -33 88 -36 30 -5 31 -4 44 50 7 30 17 57 22 60 4 3 8 14 8 24 0 10 11 41 25 68 14 27 46 108 71 178 25 71 72 203 104 294 102 288 167 471 215 605 26 72 49 138 52 148 6 18 25 21 58 8 17 -7 22 -3 30 28 9 31 15 37 46 41 71 10 135 102 122 173 -4 20 2 29 32 47 47 29 75 75 75 122 0 24 8 46 25 66 l24 29 -32 23 c-18 13 -37 31 -44 40 -7 9 -32 25 -57 34 -26 10 -46 23 -46 29 0 6 15 55 33 109 25 76 35 96 47 92 24 -10 120 -34 175 -43 42 -8 55 -6 80 9 34 22 85 82 85 102 0 8 6 22 13 33 8 11 20 42 27 70 8 27 20 57 28 66 8 10 30 59 47 111 18 51 45 122 59 157 14 36 26 71 26 78 0 7 3 13 8 13 9 0 60 118 76 175 2 6 7 21 13 35 5 14 18 50 29 80 10 30 25 61 32 69 7 7 11 20 8 28 -3 8 -6 21 -6 29 0 28 -27 13 -60 -33 -32 -44 -70 -116 -69 -129 1 -8 -21 -66 -37 -96 -8 -14 -14 -33 -14 -41 0 -16 -35 -98 -46 -110 -8 -8 -23 -47 -54 -138 -10 -31 -23 -65 -28 -75 -5 -11 -15 -37 -21 -59 -7 -22 -23 -60 -36 -85 -13 -25 -33 -72 -46 -105 -12 -33 -23 -61 -24 -63 -1 -1 -27 9 -59 23 -31 14 -63 25 -71 25 -7 0 -17 5 -20 10 -9 14 13 79 36 109 11 13 19 31 19 40 0 9 6 27 13 41 7 14 19 45 27 70 7 25 17 50 22 56 4 6 9 19 11 30 5 26 25 76 37 94 15 22 26 50 43 105 9 28 30 88 47 135 18 47 34 94 37 105 3 11 11 27 17 35 27 37 36 63 36 105 0 43 -1 45 -21 34 -11 -6 -32 -36 -46 -67 -14 -32 -31 -64 -38 -72 -6 -8 -24 -55 -40 -105 -16 -49 -32 -97 -36 -105 -27 -60 -39 -93 -39 -110 0 -11 -10 -28 -22 -40 -12 -11 -19 -20 -15 -20 4 0 1 -12 -7 -27 -7 -16 -32 -84 -56 -153 -23 -69 -48 -135 -56 -147 -8 -12 -14 -28 -14 -35 0 -7 -7 -21 -14 -31 -13 -17 -18 -17 -94 10 -63 21 -77 30 -67 39 7 7 25 52 40 101 15 48 33 104 40 123 8 19 19 53 26 75 6 22 20 54 29 70 10 17 21 48 25 70 4 22 13 49 19 60 7 11 18 45 25 75 8 30 20 67 27 82 8 15 14 36 14 46 0 11 7 22 15 26 8 3 15 13 15 23 0 10 9 45 20 77 24 72 27 136 5 136 -8 0 -20 -10 -27 -22 -15 -27 -57 -143 -65 -178 -3 -14 -11 -32 -18 -40 -6 -8 -17 -35 -24 -60 -7 -25 -18 -56 -23 -70 -6 -14 -12 -34 -14 -45 -6 -34 -54 -165 -69 -189 -8 -12 -12 -26 -9 -29 4 -4 2 -12 -4 -20 -11 -13 -18 -33 -68 -194 -16 -51 -34 -94 -41 -97 -7 -3 -43 6 -80 19 -37 14 -70 25 -72 25 -2 0 0 10 3 23 4 12 9 29 11 37 3 8 14 44 25 80 12 36 26 83 32 105 6 22 18 51 27 65 8 14 17 34 18 44 2 11 8 25 14 32 5 6 8 16 7 20 -3 9 16 78 32 119 15 37 28 80 34 108 4 15 11 27 16 27 6 0 10 9 10 20 0 12 7 31 15 44 9 13 15 28 13 32 -2 5 2 23 8 39 32 85 48 174 34 195 -22 33 -100 -102 -100 -173 0 -9 -4 -19 -10 -22 -5 -3 -10 -17 -10 -30 0 -13 -4 -27 -10 -30 -5 -3 -10 -17 -10 -30 0 -13 -7 -28 -15 -33 -9 -4 -17 -19 -19 -33 -4 -26 -6 -35 -26 -89 -6 -19 -13 -42 -15 -50 -1 -8 -7 -28 -14 -43 -6 -16 -11 -37 -11 -47 0 -10 -4 -22 -10 -25 -5 -3 -10 -17 -10 -30 0 -13 -7 -30 -15 -39 -8 -8 -15 -24 -15 -35 0 -11 -4 -23 -10 -26 -5 -3 -10 -17 -10 -31 0 -14 -5 -34 -11 -46 -13 -24 -56 -174 -58 -203 -6 -60 -2 -78 19 -100 13 -14 33 -28 44 -31 12 -4 33 -15 48 -25 14 -11 33 -19 42 -19 21 0 21 -1 -15 -100 -17 -47 -36 -99 -42 -117 -9 -27 -12 -30 -24 -17 -8 8 -30 14 -48 14 -19 0 -37 5 -40 10 -3 6 -36 10 -71 10 -58 0 -69 -3 -94 -28 -26 -27 -42 -72 -58 -167 -7 -37 -9 -40 -52 -48 -64 -12 -64 -12 -179 -3 -87 7 -106 12 -120 29 -9 12 -42 48 -75 82 -68 70 -96 111 -121 180 -10 28 -34 74 -52 103 -30 47 -42 57 -126 96 -88 41 -139 58 -217 70 -19 4 -59 16 -87 27 l-53 21 0 73 0 74 36 -35 c54 -51 126 -64 160 -29 7 6 23 42 36 79 l24 67 20 -22 c10 -12 39 -30 63 -41 36 -15 50 -17 71 -8 31 13 60 67 60 110 0 40 11 43 51 15 46 -30 105 -55 135 -55 37 0 54 26 54 84 0 29 3 55 6 59 3 3 24 -5 45 -19 21 -13 45 -24 53 -24 8 0 18 -4 21 -10 3 -5 24 -10 45 -10 54 0 64 21 58 127 -2 45 -2 83 2 83 3 0 30 -7 59 -16 28 -8 73 -14 99 -12 l47 3 3 48 c2 30 -4 68 -17 101 l-20 53 74 -5 c90 -6 119 1 132 30 11 26 -2 112 -22 144 -13 21 -12 21 60 27 40 3 83 10 94 17 29 15 27 71 -4 138 l-24 52 72 1 c99 0 141 16 145 53 4 36 -13 81 -50 129 -27 34 -27 37 -9 37 30 0 113 30 134 48 10 9 17 29 17 50 0 27 -9 42 -45 76 -25 24 -45 45 -45 48 0 3 17 9 37 13 37 7 134 63 148 86 5 6 8 25 7 42 -1 31 -17 47 -85 83 l-40 21 27 7 c34 8 105 53 128 80 10 12 18 30 18 42 0 25 -44 67 -90 84 -42 16 -60 30 -38 30 26 0 107 69 128 110 20 40 20 40 0 60 -22 22 -83 50 -111 50 -30 0 -31 18 -2 34 64 34 113 93 113 135 0 27 -35 59 -74 66 -72 15 -72 13 -14 68 70 68 88 95 88 133 0 39 -25 53 -100 56 l-55 3 83 43 c90 46 101 49 83 28 -7 -9 -8 -17 -3 -20 11 -7 25 21 17 34 -3 5 23 29 58 53 101 72 157 134 157 173 0 41 -21 54 -87 54 l-47 0 74 46 c170 105 262 206 246 269 -6 23 -10 24 -96 27 l-91 3 83 50 c46 27 99 57 118 66 19 9 49 28 65 43 17 14 37 28 45 31 8 3 48 38 88 79 61 62 72 78 72 107 0 27 -6 37 -27 47 -30 14 -40 14 -68 3z m-6388 -591 c70 -34 180 -88 243 -119 63 -31 117 -59 120 -62 3 -3 16 -10 28 -14 l24 -7 -28 -14 c-15 -8 -36 -11 -48 -8 -51 16 -342 159 -408 200 -21 13 -41 24 -45 24 -5 0 -35 16 -68 36 l-60 35 57 -4 c45 -3 84 -17 185 -67z m5843 -274 c-36 -12 -72 -25 -80 -29 -8 -3 -58 -20 -110 -37 -52 -17 -108 -38 -125 -45 -16 -7 -79 -32 -140 -55 -60 -23 -119 -46 -130 -50 -16 -6 -21 -4 -22 9 -1 12 14 22 50 35 108 37 272 99 282 106 6 5 35 17 65 28 30 10 71 28 90 40 27 16 52 21 110 21 l75 0 -65 -23z m-2686 -357 c26 -20 27 -25 21 -73 -4 -28 -13 -58 -21 -67 -33 -37 -182 -53 -248 -25 -33 14 -76 59 -76 81 0 6 19 17 42 24 40 12 42 12 70 -18 31 -33 47 -37 79 -20 15 7 20 20 19 42 -1 18 -2 37 -1 44 1 9 43 25 82 32 4 1 19 -9 33 -20z m1829 -566 c26 -19 47 -36 47 -37 0 -1 -9 -2 -20 -3 -11 -1 -20 2 -20 6 0 5 -24 11 -52 14 -177 17 -302 40 -323 59 -5 4 63 5 155 2 l165 -7 48 -34z m630 -150 c47 -17 56 -26 36 -38 -6 -4 -20 2 -32 12 -12 11 -27 23 -34 27 -12 7 -123 -17 -181 -39 -35 -13 -156 -33 -252 -42 -38 -3 -42 -2 -26 8 11 7 49 18 85 26 36 8 86 18 111 23 25 6 68 19 95 30 57 22 121 20 198 -7z m-5106 -29 c32 -4 54 -12 58 -22 3 -8 4 -16 2 -18 -2 -2 -68 1 -148 6 -278 18 -365 56 -104 46 77 -3 163 -9 192 -12z m5066 -204 c56 -21 58 -23 42 -41 -15 -15 -19 -16 -31 -4 -8 7 -14 19 -14 26 0 8 -15 10 -52 5 -29 -3 -111 -10 -183 -16 -71 -6 -152 -15 -178 -20 -61 -13 -74 -13 -61 0 5 5 52 16 104 24 112 18 232 44 239 52 10 10 73 -3 134 -26z m-4823 -9 c0 -15 -23 -26 -28 -13 -5 15 -49 16 -54 2 -5 -15 -235 -24 -363 -15 -108 8 -109 9 -70 21 48 15 515 19 515 5z m1756 -488 c108 -201 160 -304 175 -343 l18 -45 1 65 c0 60 18 231 36 338 l7 42 109 0 c100 0 109 -2 104 -17 -3 -10 -12 -70 -20 -133 -19 -151 -53 -399 -65 -475 -6 -33 -13 -88 -17 -123 l-7 -63 -110 3 -110 3 -111 220 c-62 121 -116 234 -122 250 -10 27 -11 23 -12 -35 0 -36 -10 -130 -21 -210 -11 -80 -23 -164 -26 -187 l-6 -43 -105 0 c-123 0 -114 -22 -83 197 11 81 31 225 44 318 13 94 27 195 30 225 4 30 9 58 12 63 2 4 59 7 126 7 l122 0 31 -57z m1193 20 c-2 -103 -8 -116 -119 -234 -58 -62 -153 -164 -213 -228 l-108 -116 187 -3 187 -2 -7 -53 c-4 -28 -9 -71 -12 -94 l-6 -43 -355 0 -355 0 7 68 c8 81 16 94 115 197 198 206 270 283 300 318 l32 37 -172 0 -172 0 5 23 c3 12 9 55 13 95 l7 72 333 0 334 0 -1 -37z m-1649 -1423 c0 -247 -2 -450 -5 -450 -12 0 -67 63 -76 87 -5 13 -9 197 -9 419 l0 394 45 0 45 0 0 -450z m288 -12 l-3 -463 -47 -3 -48 -3 0 465 0 466 50 0 50 0 -2 -462z m302 -4 l0 -467 -37 7 c-21 3 -46 6 -55 6 -17 0 -18 29 -18 460 l0 460 55 0 55 0 0 -466z m300 -37 l0 -504 -28 -25 -28 -25 -27 23 -27 23 0 506 0 505 55 0 55 0 0 -503z m290 44 l0 -458 -31 -7 c-76 -15 -69 -61 -69 459 l0 465 50 0 50 0 0 -459z m300 -7 l0 -465 -52 3 -53 3 -3 463 -2 462 55 0 55 0 0 -466z m290 118 c0 -423 -10 -490 -79 -538 l-21 -15 0 450 0 451 50 0 50 0 0 -348z">
        </path>
    </g>
</svg>